<?xml version="1.0" encoding="utf-8"?>
<!-- Generator: Adobe Illustrator 24.3.1, SVG Export Plug-In . SVG Version: 6.00 Build 0)  -->
<svg version="1.1" id="Layer_1" xmlns="http://www.w3.org/2000/svg" xmlns:xlink="http://www.w3.org/1999/xlink" x="0px" y="0px"
	 viewBox="0 0 720 720" style="enable-background:new 0 0 720 720;" xml:space="preserve">
<style type="text/css">
	.st0{fill:#FFFFFF;}
</style>
<g>
	<path class="st0" d="M330.2,387.6c35-2.3,62.2-12.4,81-39.7c21.7-31.5,43.9-62.7,65.4-94.4c41.9-61.8,83.3-123.8,125.1-185.6
		c1.9-2.8,1.8-4.7-0.1-7.4c-12.1-17.4-34.5-24.4-55-16.7c-47.4,17.8-94.7,35.7-142,53.6c-92.5,35-185,70-277.5,104.9
		c-38.9,14.7-77.9,29.4-116.8,44.2c-19.9,7.6-31.6,26.1-30.3,47c0.3,4.3,1.3,6.7,6.2,7.9c13.5,3.1,26.7,7,40.1,10.4
		c88.7,22.7,177.4,45.4,266.1,67.9C305.9,383.1,319.7,385.4,330.2,387.6z M739.6,433.6c0.1-12.5,0.1-12.6-9.4-15.1
		c-41.5-10.9-83-22-124.6-32.7c-50.9-13.1-102-25.9-152.9-39c-3.8-1-6-0.6-8.2,3c-3.1,5.1-7,9.7-10.4,14.7
		c-23.5,33.9-57.2,48.5-97.2,50.9c-15.1,0.9-29.4-3.3-43.9-6.3c-9.1-1.9-9.1-2-14.5,5.9c-53.5,79.2-107,158.5-160.6,237.6
		c-1.9,2.8-1.8,4.7,0.1,7.4c12.8,18.1,35.1,24.3,57.4,15.9c40.5-15.4,80.9-30.7,121.4-46c98.9-37.4,197.8-74.8,296.7-112.1
		c39.2-14.8,78.6-29.3,117.7-44.8C729.6,465.7,738.6,450.6,739.6,433.6z M465.6,320.4c87.2,22.6,173.8,45,261.2,67.6
		c-36.9-97.5-73.4-194.2-110.2-291.3C566,171.6,515.9,245.9,465.6,320.4z M-7.2,332.5c36.8,97.4,73.4,194.2,110.1,291.3
		c50.6-75,100.8-149.4,151-223.7C166.9,377.6,80.3,355.2-7.2,332.5z"/>
	<path d="M330.2,387.6c-10.5-2.2-24.3-4.5-37.8-7.9c-88.7-22.5-177.4-45.2-266.1-67.9c-13.4-3.4-26.6-7.4-40.1-10.4
		c-4.9-1.1-5.9-3.6-6.2-7.9c-1.3-20.8,10.4-39.4,30.3-47c38.9-14.8,77.9-29.5,116.8-44.2c92.5-35,185-70,277.5-104.9
		c47.3-17.9,94.7-35.8,142-53.6c20.6-7.7,42.9-0.7,55,16.7c1.9,2.7,2,4.6,0.1,7.4c-41.7,61.8-83.2,123.9-125.1,185.6
		c-21.5,31.7-43.7,62.9-65.4,94.4C392.4,375.2,365.1,385.3,330.2,387.6z"/>
	<path d="M739.6,433.6c-1,17-10,32.1-28.4,39.4c-39,15.5-78.4,29.9-117.7,44.8c-98.9,37.4-197.8,74.8-296.7,112.1
		c-40.5,15.3-81,30.6-121.4,46c-22.3,8.5-44.6,2.3-57.4-15.9c-1.9-2.7-2-4.6-0.1-7.4C171.5,573.4,225,494.2,278.5,415
		c5.3-7.9,5.4-7.8,14.5-5.9c14.5,3,28.8,7.2,43.9,6.3c40-2.4,73.7-17,97.2-50.9c3.4-4.9,7.3-9.6,10.4-14.7c2.2-3.5,4.4-4,8.2-3
		c51,13.1,102,25.9,152.9,39c41.6,10.7,83.1,21.8,124.6,32.7C739.7,421,739.7,421.1,739.6,433.6z"/>
	<path d="M465.6,320.4c50.3-74.5,100.4-148.8,151-223.7c36.7,97.1,73.3,193.8,110.2,291.3C639.4,365.4,552.8,343,465.6,320.4z"/>
	<path d="M-7.2,332.5c87.5,22.6,174.1,45.1,261.1,67.6c-50.2,74.4-100.4,148.8-151,223.7C66.2,526.7,29.6,429.9-7.2,332.5z"/>
</g>
</svg>
