<?xml version="1.0" encoding="utf-8"?>
<!-- Generator: Adobe Illustrator 24.3.1, SVG Export Plug-In . SVG Version: 6.00 Build 0)  -->
<svg version="1.1" id="Layer_1" xmlns="http://www.w3.org/2000/svg" xmlns:xlink="http://www.w3.org/1999/xlink" x="0px" y="0px"
	 viewBox="0 0 720 720" style="enable-background:new 0 0 720 720;" xml:space="preserve">
<style type="text/css">
	.st0{fill:#00C4FF;}
	.st1{fill:#FFFFFF;}
	.st2{fill:#0A2852;}
</style>
<g>
	<path class="st0" d="M107.7,311.4c8.4-1.4,14.8-6.5,21.4-11.3c12.8-9.2,18.7-9.2,31.7-0.4c3.7,2.5,7.3,5.3,11.1,7.6
		c7,4.3,14.2,4.6,21.2,0.2c5.1-3.2,9.9-6.7,14.9-10.1c8.1-5.5,16.2-5.5,24.2-0.1c4.3,2.9,8.5,5.8,12.7,8.8c8.5,6,17,5.9,25.5,0
		c4.5-3.1,9-6.4,13.6-9.4c7.5-4.9,15.1-4.7,22.5,0.1c4.9,3.2,9.6,6.6,14.4,9.9c7.8,5.3,15.6,5.1,23.4,0.1c4.3-2.8,8.5-5.8,12.7-8.8
		c8.8-6.3,17.6-6.2,26.4,0.1c4.1,2.9,8.1,5.8,12.3,8.6c7.9,5.2,15.9,5.5,23.8,0.1c4.8-3.3,9.6-6.7,14.5-9.8c7.5-4.8,15.1-4.9,22.5,0
		c4,2.6,7.9,5.5,11.9,8.3c10.9,7.4,17.6,7.5,28.5,0.1c4-2.7,7.9-5.6,11.9-8.3c7.6-5,15.3-5,22.9,0c4.6,3,9,6.3,13.6,9.4
		c8.4,5.6,16.7,5.8,25.1-0.1c4.4-3.1,8.7-6.1,13.2-9.1c8-5.4,15.9-5.1,23.8,0.2c4.6,3.1,9,6.4,13.6,9.4c7.7,5,15.5,5.5,23.4,0.2
		c4.4-3,8.8-6,13.2-9.1c8.7-6.1,17.3-6,26,0.1c2,1.4,3.9,3.2,6.1,4.3c6,3.2,12.1,6.1,18.1,9.1c0,2.3,0,4.7,0,7
		c-5.1-2.3-10.4-4.4-15.3-7c-3.8-2.1-7.1-5-10.7-7.4c-7.4-4.8-15.1-4.9-22.6-0.2c-5.2,3.3-10.1,7.1-15.2,10.4
		c-7.3,4.7-14.8,4.8-22.1,0.1c-5.5-3.5-10.7-7.4-16.2-10.9c-6.8-4.4-13.9-4.3-20.7,0c-5.4,3.3-10.5,7-15.8,10.6
		c-7.6,5.2-15.3,5-22.9,0c-5-3.3-9.9-6.8-14.9-10.1c-7.5-4.9-15-4.8-22.5,0.1c-5.3,3.5-10.5,7.1-15.8,10.6
		c-6.6,4.4-13.4,4.6-20.2,0.4c-5.6-3.5-11.1-7.4-16.6-11c-7.5-5-15.1-4.7-22.5,0c-4.6,2.9-9,6.3-13.5,9.4c-8.3,5.8-16.6,6.1-25,0.1
		c-4.2-3-8.5-5.9-12.7-8.8c-8.2-5.5-16.4-5.9-24.6-0.1c-4.5,3.2-9.1,6.1-13.6,9.3c-8,5.6-15.9,5.2-23.7-0.1
		c-4.6-3.1-8.9-6.4-13.5-9.4c-7.9-5.2-15.9-5.4-23.8-0.1c-4.4,3-8.8,6.1-13.1,9.1c-8.3,5.8-16.7,5.9-25.1,0
		c-4.5-3.1-8.9-6.4-13.5-9.4c-7.4-4.8-15-5.2-22.5-0.2c-4.7,3.1-9.4,6.4-14,9.6c-8,5.6-16,6.1-24.1,0.4c-4.2-3-8.5-5.9-12.7-8.8
		c-8.6-6-17.2-6.5-25.9-0.1c-3.6,2.6-7.2,5.5-11.1,7.6c-4.3,2.3-9.1,3.9-13.6,5.9C107.7,316.1,107.7,313.7,107.7,311.4z"/>
	<path class="st0" d="M707.7,342.7c-5.8-2.9-11.6-5.5-17.2-8.6c-3.8-2.1-7.1-4.9-10.9-7c-6.3-3.6-12.8-3.7-19,0.2
		c-4.7,2.9-9.1,6.2-13.6,9.3c-10.5,7.3-17.4,7.4-28,0.2c-3.6-2.4-7.2-4.9-10.7-7.4c-9-6.6-17.9-6.1-26.7,0.3
		c-4.2,3-8.4,5.9-12.7,8.8c-7.3,4.9-14.7,4.9-22,0.1c-4.6-3-9.1-6.2-13.6-9.3c-8.4-5.8-16.9-6.3-25.5-0.2c-4.6,3.3-9.2,6.6-14,9.6
		c-7.3,4.7-14.8,4.7-22.1,0c-5.3-3.4-10.4-7.2-15.7-10.6c-7-4.5-14.1-4.6-21.2-0.2c-5.2,3.3-10.2,6.9-15.3,10.3
		c-7.5,5.2-15.1,5.5-22.8,0.4c-5-3.3-9.9-6.8-14.9-10.1c-7.6-5.1-15.2-5.2-22.9-0.2c-4.7,3.1-9.4,6.3-14,9.6
		c-8.2,5.8-16.4,5.6-24.6-0.1c-4.3-2.9-8.4-6-12.7-8.9c-8.2-5.6-16.4-5.7-24.7-0.1c-5.2,3.5-10.4,7.2-15.8,10.5
		c-6.6,4.1-13.3,3.9-19.8-0.4c-5.3-3.5-10.5-7-15.8-10.5c-7.4-5-15-5.2-22.5-0.3c-4.6,3-9.1,6.2-13.6,9.4c-8.7,6-17.3,6.2-25.9-0.1
		c-4.2-3-8.5-5.9-12.7-8.8c-7.7-5.3-15.5-5.2-23.3-0.1c-3.1,2-5.9,4.4-9.1,6.1c-5.5,3-11.2,5.5-16.9,8.2c0-2.7,0-5.3,0-8
		c4-1.3,8.3-2.1,12-4.1c5.2-2.9,9.9-6.7,14.9-10c6.8-4.5,13.9-4.3,20.7-0.1c5.1,3.1,9.9,6.7,14.9,10c8.2,5.5,16.4,5.9,24.7,0.1
		c4.5-3.1,9-6.3,13.6-9.3c7.8-5.1,15.6-5.2,23.4,0c5,3.3,9.9,6.8,14.9,10.1c7.3,4.9,14.8,4.5,22.1,0c4.5-2.8,8.8-6,13.1-9.1
		c8.8-6.3,17.5-6.3,26.4-0.1c4.5,3.2,9,6.3,13.6,9.3c7.2,4.7,14.5,4.5,21.6,0.1c4.4-2.7,8.5-5.9,12.7-8.8
		c10.4-7.1,17.2-7.2,27.6-0.2c3.9,2.6,7.6,5.4,11.5,8c8.2,5.5,16.4,5.9,24.6,0.1c4.4-3.1,8.7-6.1,13.2-9.1c8.1-5.5,16.2-5.5,24.2,0
		c4.5,3.1,9,6.3,13.6,9.4c7.9,5.3,15.9,5.2,23.8-0.1c4.8-3.2,9.5-6.7,14.4-9.9c7.5-4.8,15.1-4.7,22.5,0.2c4.3,2.8,8.5,5.9,12.7,8.8
		c8.7,6.1,17.5,6.6,26.4,0.2c4.2-3,8.5-5.9,12.7-8.8c7.9-5.3,15.9-5.2,23.8,0.1c3.9,2.6,7.6,5.4,11.5,8c10.1,7,16.9,7.1,27.1,0.5
		c4.2-2.7,8.2-5.7,12.4-8.5c8.1-5.5,16.2-5.4,24.2,0c4.7,3.2,9.1,6.8,14.1,9.5c3.4,1.8,7.4,2.4,11.1,3.6
		C707.7,337.4,707.7,340.1,707.7,342.7z"/>
	<path class="st0" d="M107.7,323.3c4.1-1.5,8.6-2.6,12.4-4.7c4.9-2.7,9.3-6.4,14.1-9.5c7.3-4.7,14.8-4.5,22.1,0.1
		c4.8,3,9.4,6.3,14,9.6c8.2,5.7,16.3,6,24.6,0.2c5.3-3.7,10.7-7.4,16.2-10.8c6.1-3.7,12.4-3.7,18.5,0.1c5,3.1,9.7,6.5,14.5,9.7
		c10.6,7.1,16.9,7.1,27.5-0.2c3-2.1,5.9-4.3,8.9-6.4c11-7.7,17.6-7.8,28.8-0.3c3.7,2.5,7.4,5.2,11.1,7.7c8.2,5.6,16.4,5.7,24.6,0
		c4.9-3.4,9.9-6.7,14.9-10.1c6.9-4.6,13.9-4,20.7,0c4.6,2.7,8.8,6.1,13.2,9c10.8,7.2,17.1,7.2,28-0.2c4.3-2.9,8.5-5.9,12.8-8.7
		c7-4.5,14.1-4.6,21.1,0c5,3.3,10,6.6,14.9,10.1c8.1,5.6,16.1,5.5,24.2,0c4.4-3,8.8-6.1,13.2-9.1c8.2-5.6,16.5-5.5,24.6,0.1
		c4.3,2.9,8.5,5.9,12.7,8.8c8.2,5.6,16.4,5.8,24.6,0c4.6-3.2,9.3-6.4,14-9.6c7.5-5,15-5,22.4,0c4.4,3,8.8,6,13.2,9
		c8.4,5.9,16.8,6.7,25.4,0.5c4.9-3.5,9.9-6.8,14.9-10.1c6.9-4.5,13.8-4.3,20.7,0.1c5,3.2,9.8,7,15,9.9c3.7,2.1,7.9,3.1,11.9,4.5
		c0,2.3,0,4.7,0,7c-4.7-1.9-9.6-3.5-14.1-5.9c-4.4-2.3-8.3-5.6-12.4-8.4c-7.2-4.8-14.4-4.7-21.5,0c-4.7,3.1-9.5,6.2-14.1,9.5
		c-8.3,6-16.7,5.9-25.1,0.3c-4.2-2.8-8.3-5.6-12.3-8.6c-8.8-6.4-17.5-6.2-26.3,0.2c-4,3-8.2,5.8-12.3,8.6
		c-8.1,5.4-16.2,5.3-24.2-0.2c-5.1-3.5-10.1-7-15.3-10.3c-6.7-4.2-13.6-4.1-20.2,0.2c-4.3,2.8-8.5,5.8-12.8,8.7
		c-10.5,7.2-18,7.2-28.5,0.1c-4.1-2.8-8.2-5.7-12.4-8.5c-7.3-4.9-14.7-4.8-22-0.1c-4.7,3.1-9.3,6.5-14,9.6c-8.4,5.7-16.6,5.6-25.1,0
		c-5-3.3-9.8-6.8-14.9-10.1c-6.7-4.2-13.6-4.2-20.2,0.1c-4.8,3.1-9.3,6.4-14,9.6c-9.2,6.2-17.2,6.2-26.4,0.1c-4.4-3-8.8-6.1-13.2-9
		c-7.6-5.1-15.3-4.9-22.8,0.2c-4.7,3.2-9.3,6.5-14,9.6c-7.9,5.2-16,5.1-23.9-0.1c-4.9-3.2-9.6-6.6-14.4-9.9
		c-7.1-4.8-14.3-4.8-21.5-0.3c-3.9,2.5-7.8,5.1-11.6,7.8c-12,8.5-18.6,8.6-30.8,0.1c-3.6-2.5-7.1-5-10.7-7.4
		c-7.6-5.2-15.3-5.1-22.9,0c-5,3.3-9.7,7-15,10c-3.4,1.9-7.4,2.7-11.1,3.9C107.7,328,107.7,325.7,107.7,323.3z"/>
</g>
<rect x="401.4" y="254.8" class="st1" width="312.6" height="136.1"/>
<image style="overflow:visible;" width="312" height="352" xlink:href="logo-vote-forward-mailbox.png"  transform="matrix(0.4615 0 0 0.4615 26.0084 223.5666)">
</image>
<g>
	<path class="st1" d="M459.1,327.3L399,350.4c-2.8,1.1-5.9-0.3-7-3.1l-14.8-38.6c-1.1-2.8,0.3-5.9,3.1-7l60.1-23.1
		c2.8-1.1,5.9,0.3,7,3.1l14.8,38.6C463.3,323.1,461.9,326.3,459.1,327.3z"/>
	<g>
		<path class="st2" d="M416.1,317.5c3.9-0.3,7-1.4,9.1-4.5c2.4-3.6,4.9-7.1,7.4-10.6c4.7-7,9.4-13.9,14.1-20.9
			c0.2-0.3,0.2-0.5,0-0.8c-1.4-2-3.9-2.7-6.2-1.9c-5.3,2-10.7,4-16,6c-10.4,3.9-20.8,7.9-31.3,11.8c-4.4,1.7-8.8,3.3-13.2,5
			c-2.2,0.9-3.6,2.9-3.4,5.3c0,0.5,0.1,0.8,0.7,0.9c1.5,0.3,3,0.8,4.5,1.2c10,2.6,20,5.1,30,7.7C413.4,317,414.9,317.2,416.1,317.5z
			 M462.2,322.7c0-1.4,0-1.4-1.1-1.7c-4.7-1.2-9.4-2.5-14-3.7c-5.7-1.5-11.5-2.9-17.2-4.4c-0.4-0.1-0.7-0.1-0.9,0.3
			c-0.4,0.6-0.8,1.1-1.2,1.7c-2.7,3.8-6.4,5.5-11,5.7c-1.7,0.1-3.3-0.4-4.9-0.7c-1-0.2-1-0.2-1.6,0.7c-6,8.9-12.1,17.9-18.1,26.8
			c-0.2,0.3-0.2,0.5,0,0.8c1.4,2,4,2.7,6.5,1.8c4.6-1.7,9.1-3.5,13.7-5.2c11.1-4.2,22.3-8.4,33.4-12.6c4.4-1.7,8.9-3.3,13.3-5
			C461.1,326.3,462.1,324.6,462.2,322.7z M431.3,309.9c9.8,2.5,19.6,5.1,29.4,7.6c-4.2-11-8.3-21.9-12.4-32.8
			C442.7,293.2,437,301.5,431.3,309.9z M378.1,311.3c4.1,11,8.3,21.9,12.4,32.8c5.7-8.4,11.4-16.8,17-25.2
			C397.7,316.4,387.9,313.8,378.1,311.3z"/>
		<path class="st2" d="M416.1,317.5c-1.2-0.2-2.7-0.5-4.3-0.9c-10-2.5-20-5.1-30-7.7c-1.5-0.4-3-0.8-4.5-1.2
			c-0.6-0.1-0.7-0.4-0.7-0.9c-0.2-2.3,1.2-4.4,3.4-5.3c4.4-1.7,8.8-3.3,13.2-5c10.4-3.9,20.8-7.9,31.3-11.8c5.3-2,10.7-4,16-6
			c2.3-0.9,4.8-0.1,6.2,1.9c0.2,0.3,0.2,0.5,0,0.8c-4.7,7-9.4,14-14.1,20.9c-2.4,3.6-4.9,7.1-7.4,10.6
			C423.1,316.1,420,317.2,416.1,317.5z"/>
		<path class="st2" d="M462.2,322.7c-0.1,1.9-1.1,3.6-3.2,4.4c-4.4,1.7-8.8,3.4-13.3,5c-11.1,4.2-22.3,8.4-33.4,12.6
			c-4.6,1.7-9.1,3.5-13.7,5.2c-2.5,1-5,0.3-6.5-1.8c-0.2-0.3-0.2-0.5,0-0.8c6-8.9,12.1-17.9,18.1-26.8c0.6-0.9,0.6-0.9,1.6-0.7
			c1.6,0.3,3.2,0.8,4.9,0.7c4.5-0.3,8.3-1.9,11-5.7c0.4-0.6,0.8-1.1,1.2-1.7c0.2-0.4,0.5-0.4,0.9-0.3c5.7,1.5,11.5,2.9,17.2,4.4
			c4.7,1.2,9.4,2.5,14,3.7C462.2,321.3,462.2,321.3,462.2,322.7z"/>
		<path class="st2" d="M431.3,309.9c5.7-8.4,11.3-16.8,17-25.2c4.1,10.9,8.3,21.8,12.4,32.8C450.9,315,441.2,312.5,431.3,309.9z"/>
		<path class="st2" d="M378.1,311.3c9.9,2.6,19.6,5.1,29.4,7.6c-5.7,8.4-11.3,16.8-17,25.2C386.3,333.2,382.2,322.3,378.1,311.3z"/>
	</g>
</g>
</svg>
